<svg xmlns="http://www.w3.org/2000/svg" width="512" height="512" viewBox="0 0 512 512">
  <defs>
    <linearGradient id="plateL" x1="0%" y1="0%" x2="0%" y2="100%">
      <stop offset="0%" stop-color="#cdd2d9" />
      <stop offset="100%" stop-color="#a3aab4" />
    </linearGradient>
    <linearGradient id="armorL" x1="0%" y1="0%" x2="100%" y2="100%">
      <stop offset="0%" stop-color="#7c848f" />
      <stop offset="100%" stop-color="#5d6470" />
    </linearGradient>
    <linearGradient id="tubeL" x1="0%" y1="0%" x2="0%" y2="100%">
      <stop offset="0%" stop-color="#f5b45a" />
      <stop offset="100%" stop-color="#e38a32" />
    </linearGradient>
  </defs>
  <g stroke="#0a0a0a" stroke-width="14" stroke-linejoin="round" fill="none">
    <rect x="80" y="188" width="352" height="148" rx="18" fill="url(#plateL)"/>
    <rect x="112" y="140" width="288" height="196" rx="22" fill="#9ca4ae"/>
    <rect x="152" y="164" width="208" height="180" rx="18" fill="url(#armorL)"/>
    <rect x="180" y="120" width="152" height="56" rx="14" fill="#4b515d"/>
    <rect x="236" y="60" width="40" height="120" rx="12" fill="url(#tubeL)"/>
    <rect x="118" y="240" width="56" height="84" rx="12" fill="#cf1e26"/>
    <rect x="338" y="240" width="56" height="84" rx="12" fill="#cf1e26"/>
    <rect x="104" y="292" width="72" height="64" rx="14" fill="#d5d9de"/>
    <rect x="336" y="292" width="72" height="64" rx="14" fill="#d5d9de"/>
    <rect x="132" y="334" width="56" height="36" rx="12" fill="#f2b94c"/>
    <rect x="324" y="334" width="56" height="36" rx="12" fill="#f2b94c"/>
    <rect x="220" y="332" width="72" height="62" rx="16" fill="#e9edf0"/>
    <rect x="206" y="236" width="100" height="90" rx="14" fill="#cdd2d9"/>
    <rect x="188" y="208" width="136" height="46" rx="12" fill="#cf1e26"/>
  </g>
</svg>
