<svg xmlns="http://www.w3.org/2000/svg" width="512" height="512" viewBox="0 0 512 512">
  <defs>
    <linearGradient id="plate" x1="0%" y1="0%" x2="0%" y2="100%">
      <stop offset="0%" stop-color="#c7ccd3" />
      <stop offset="100%" stop-color="#9fa6b2" />
    </linearGradient>
    <linearGradient id="armor" x1="0%" y1="0%" x2="100%" y2="100%">
      <stop offset="0%" stop-color="#7a828f" />
      <stop offset="100%" stop-color="#5a606c" />
    </linearGradient>
    <linearGradient id="tube" x1="0%" y1="0%" x2="0%" y2="100%">
      <stop offset="0%" stop-color="#f5b45a" />
      <stop offset="100%" stop-color="#e38a32" />
    </linearGradient>
  </defs>
  <g stroke="#0a0a0a" stroke-width="16" stroke-linejoin="round" fill="none">
    <!-- 履带 -->
    <rect x="70" y="216" width="80" height="150" rx="24" fill="#2f343d"/>
    <rect x="362" y="216" width="80" height="150" rx="24" fill="#2f343d"/>
    <!-- 外侧轮盘 -->
    <circle cx="110" cy="256" r="26" fill="#d5d9de"/>
    <circle cx="110" cy="326" r="26" fill="#d5d9de"/>
    <circle cx="402" cy="256" r="26" fill="#d5d9de"/>
    <circle cx="402" cy="326" r="26" fill="#d5d9de"/>
    <circle cx="110" cy="256" r="12" fill="#cf1e26"/>
    <circle cx="110" cy="326" r="12" fill="#cf1e26"/>
    <circle cx="402" cy="256" r="12" fill="#cf1e26"/>
    <circle cx="402" cy="326" r="12" fill="#cf1e26"/>
    <!-- 车体 -->
    <rect x="120" y="188" width="272" height="190" rx="28" fill="url(#plate)"/>
    <rect x="152" y="212" width="208" height="150" rx="22" fill="#9aa3ae"/>
    <rect x="190" y="238" width="132" height="112" rx="18" fill="url(#armor)"/>
    <!-- 主炮基座 -->
    <rect x="214" y="160" width="84" height="110" rx="18" fill="url(#tube)"/>
    <!-- 双管 -->
    <rect x="204" y="78" width="32" height="140" rx="12" fill="url(#tube)"/>
    <rect x="276" y="78" width="32" height="140" rx="12" fill="url(#tube)"/>
    <rect x="196" y="78" width="48" height="46" rx="14" fill="#353a44"/>
    <rect x="268" y="78" width="48" height="46" rx="14" fill="#353a44"/>
    <!-- 前装甲与红色点缀 -->
    <rect x="188" y="310" width="136" height="42" rx="14" fill="#cf1e26"/>
    <rect x="170" y="282" width="44" height="64" rx="12" fill="#e2e6ea"/>
    <rect x="298" y="282" width="44" height="64" rx="12" fill="#e2e6ea"/>
    <rect x="220" y="326" width="72" height="52" rx="14" fill="#f2b94c"/>
  </g>
</svg>
